<?xml version="1.0" encoding="UTF-8"?>
<svg width="23px" height="23px" viewBox="0 0 23 23" version="1.1" xmlns="http://www.w3.org/2000/svg" xmlns:xlink="http://www.w3.org/1999/xlink">
    <title>Fill 1</title>
    <g id="Designs" stroke="none" stroke-width="1" fill="none" fill-rule="evenodd">
        <g id="LandGlide_Desktop-App" transform="translate(-140.000000, -64.000000)" fill="#353734">
            <path d="M149.312595,79.562595 C145.860595,79.562595 143.062595,76.764595 143.062595,73.312595 C143.062595,69.860595 145.860595,67.062595 149.312595,67.062595 C152.764595,67.062595 155.562595,69.860595 155.562595,73.312595 C155.558595,76.762595 152.762595,79.558595 149.312595,79.562595 L149.312595,79.562595 Z M156.818595,78.697595 C159.809595,74.535595 158.860595,68.735595 154.697595,65.744595 C150.535595,62.753595 144.735595,63.703595 141.744595,67.865595 C138.753595,72.028595 139.703595,77.827595 143.865595,80.818595 C147.102595,83.143595 151.461595,83.143595 154.697595,80.818595 L159.997595,86.123595 L162.119595,84.001595 L156.818595,78.697595 Z" id="Fill-1"></path>
        </g>
    </g>
</svg>